<?xml version="1.0" encoding="utf-8"?>
<!-- Generator: Adobe Illustrator 26.1.0, SVG Export Plug-In . SVG Version: 6.00 Build 0)  -->
<svg version="1.1" id="Ebene_1" xmlns="http://www.w3.org/2000/svg" xmlns:xlink="http://www.w3.org/1999/xlink" x="0px" y="0px"
	 viewBox="0 0 960 540" style="enable-background:new 0 0 960 540;" xml:space="preserve">
<style type="text/css">
	.st0{fill:#FFFFFF;}
	.st1{fill:#ED6B1D;}
</style>
<g>
	<path class="st0" d="M249,203.6v34.9c-0.5,0-1.1,0-1.7,0c-11.2,0-21.3,5.4-27.5,13.8c0,0,0,0,0,0c-2,2.4-3.7,5.2-4.7,8.7
		c-0.9,2.7-1.3,5.8-1.3,9.2v53.1h-35.2v-50.5c0-0.9,0-1.7,0.1-2.6c0.9-24.7,14.8-46,35.1-57.3c8-4.5,17.1-7.5,26.7-8.4
		c0,0,0.1,0,0.1,0C243.3,203.9,246.2,203.6,249,203.6z"/>
	<path class="st0" d="M659.3,264.6c0-35.4-25.3-62-59.6-62c-37.1,0-62.4,27-62.4,62c0,35,24.9,62,65,62c22.3,0,39.7-8.2,51.2-24.2
		l-28.2-16.2c-4.7,5.2-12.9,8.9-22.5,8.9c-12.9,0-23.7-4.2-28.2-16.4h83.3C658.8,274.2,659.3,269.5,659.3,264.6z M573.9,252.4
		c3.3-12,12.2-18.5,25.6-18.5c10.6,0,21.1,4.9,24.9,18.5H573.9z"/>
	<path class="st0" d="M790.7,264.6c0-35.4-25.3-62-59.6-62c-37.1,0-62.4,27-62.4,62c0,35,24.9,62,65,62c22.3,0,39.7-8.2,51.2-24.2
		l-28.2-16.2c-4.7,5.2-12.9,8.9-22.5,8.9c-12.9,0-23.7-4.2-28.2-16.4h83.3C790.3,274.2,790.7,269.5,790.7,264.6z M705.3,252.4
		c3.3-12,12.2-18.5,25.6-18.5c10.6,0,21.1,4.9,24.9,18.5H705.3z"/>
	<path class="st0" d="M872.4,264.6l42.7-58.7h-41.1l-35.2,51.4V159h-35.2v164.3h35.2v-51.9l37.5,51.9h39.9L872.4,264.6z"/>
	<g>
		<path class="st0" d="M318.2,202.7c-13.4,0-25.7,4.1-35.8,11.1c-9.7,6.8-17.4,16.2-21.9,27.4c-2.9,7.2-4.5,15.1-4.5,23.5
			c0,13.6,4.2,26,11.3,36c6.9,9.7,16.4,17.2,27.7,21.6c7.2,2.8,15,4.4,23.2,4.4c34.5,0,62.2-27,62.2-62
			C380.4,229.7,352.7,202.7,318.2,202.7z M318.2,292.3c-1.7,0-3.4-0.1-4.9-0.4c-12.8-2.1-22-12.5-22-27.3c0-12.3,6.4-21.6,15.9-25.5
			c3.3-1.4,7.1-2.1,11-2.1c15.3,0,27,11,27,27.7C345.2,281.3,333.5,292.3,318.2,292.3z"/>
	</g>
	<path class="st0" d="M523.2,205.6v116.7c0,41.3-32.2,58.7-64.8,58.7c-25.5,0-46.9-9.6-58.2-29.7l31.4-18.2
		c4.7,8.6,11.8,15.5,28,15.5c17.2,0,27.8-8.8,27.8-26.3V311c-8.1,10.1-19.9,16-35.9,16c-34.9,0-60.4-28.5-60.4-62.4
		c0-33.9,25.5-62.4,60.4-62.4c16,0,27.8,5.9,35.9,16v-12.5H523.2z M487.3,264.6c0-16.9-12.3-28.5-29.7-28.5
		c-17.4,0-29.7,11.5-29.7,28.5s12.3,28.5,29.7,28.5C475,293.1,487.3,281.5,487.3,264.6z"/>
	<path class="st0" d="M159.9,237.4c-6.1-12.3-16.1-22.1-28.4-27.9c-8-3.8-17-5.9-26.6-5.9h0c-9.5,0-18.5,2.1-26.6,5.9
		c-3.1,1.4-6,3.1-8.7,5c-8.4,5.8-15.2,13.6-19.7,22.8c-0.7,1.4-1.3,2.8-1.8,4.2c-2.9,7.1-4.4,14.9-4.4,23.1v27.3h34.7v-27.3
		c0-12.1,6.3-21.2,15.7-25.1c3.3-1.4,7-2.1,10.9-2.1h0c15,0,26.6,10.9,26.6,27.3c0,16.4-11.5,27.3-26.6,27.3v33.7
		c9.5,0,18.5-2.1,26.6-5.9c12.4-5.8,22.4-15.6,28.4-27.9c4-8.2,6.3-17.4,6.3-27.3C166.2,254.7,163.9,245.5,159.9,237.4z"/>
	<rect x="43.7" y="325.7" class="st1" width="34.7" height="27"/>
</g>
</svg>
